<svg xmlns="http://www.w3.org/2000/svg" version="1.1" xmlns:xlink="http://www.w3.org/1999/xlink" xmlns:svgjs="http://svgjs.dev/svgjs" width="1500" height="935" viewBox="0 0 1500 935"><g transform="matrix(1,0,0,1,-0.9090909090909918,0.3785425101214628)"><svg viewBox="0 0 396 247" data-background-color="#f9f9f9" preserveAspectRatio="xMidYMid meet" height="935" width="1500" xmlns="http://www.w3.org/2000/svg" xmlns:xlink="http://www.w3.org/1999/xlink"><g id="tight-bounds" transform="matrix(1,0,0,1,0.2400000000000091,-0.09999999999999432)"><svg viewBox="0 0 395.52 247.2" height="247.2" width="395.52"><g><svg></svg></g><g><svg viewBox="0 0 395.52 247.2" height="247.2" width="395.52"><g transform="matrix(1,0,0,1,75.54432,70.41286124772864)"><svg viewBox="0 0 244.43135999999998 106.3742775045427" height="106.3742775045427" width="244.43135999999998"><g><svg viewBox="0 0 244.43135999999998 106.3742775045427" height="106.3742775045427" width="244.43135999999998"><g><svg viewBox="0 0 244.43135999999998 106.3742775045427" height="106.3742775045427" width="244.43135999999998"><g><svg viewBox="0 0 244.43135999999998 106.3742775045427" height="106.3742775045427" width="244.43135999999998"><g id="textblocktransform"><svg viewBox="0 0 244.43135999999998 106.3742775045427" height="106.3742775045427" width="244.43135999999998" id="textblock"><g><svg viewBox="0 0 244.43135999999998 106.3742775045427" height="106.3742775045427" width="244.43135999999998"><g transform="matrix(1,0,0,1,0,0)"><svg width="244.43135999999998" viewBox="4.69 -34.47 80.61 35.08" height="106.3742775045427" data-palette-color="#030303"><path d="M8.69 0L4.69 0 4.69-33.84 8.69-33.84 8.69-16.58 8.86-16.58 23.24-33.84 27.76-33.84 17.14-20.97 29.42 0 24.93 0 14.67-17.87 8.69-10.82 8.69 0ZM43.63 0.61L43.63 0.61Q39.99 0.61 37.01-0.74 34.03-2.1 31.86-4.42L31.86-4.42 34.13-7.1Q35.94-5.13 38.45-4.03 40.96-2.93 43.67-2.93L43.67-2.93Q47.12-2.93 49.05-4.49 50.97-6.05 50.97-8.59L50.97-8.59Q50.97-10.4 50.22-11.49 49.46-12.57 48.17-13.29 46.87-14.01 45.26-14.72L45.26-14.72 40.38-16.89Q38.82-17.58 37.23-18.65 35.64-19.73 34.58-21.41 33.52-23.1 33.52-25.56L33.52-25.56Q33.52-28.15 34.89-30.15 36.25-32.15 38.63-33.31 41.01-34.47 44.02-34.47L44.02-34.47Q47.12-34.47 49.66-33.3 52.19-32.13 53.93-30.4L53.93-30.4 51.71-27.71Q50.17-29.17 48.22-30.04 46.26-30.91 44.02-30.91L44.02-30.91Q41.14-30.91 39.37-29.52 37.6-28.13 37.6-25.81L37.6-25.81Q37.6-24.15 38.45-23.07 39.3-22 40.6-21.3 41.89-20.61 43.21-20.04L43.21-20.04 48.04-17.97Q50.02-17.14 51.61-15.99 53.2-14.84 54.12-13.15 55.05-11.45 55.05-8.91L55.05-8.91Q55.05-6.25 53.66-4.09 52.27-1.93 49.72-0.66 47.17 0.61 43.63 0.61ZM74.95 0.61L74.95 0.61Q70.5 0.61 67.06-1.48 63.62-3.56 61.68-7.48 59.74-11.4 59.74-16.89L59.74-16.89Q59.74-22.34 61.74-26.27 63.74-30.2 67.23-32.34 70.72-34.47 75.21-34.47L75.21-34.47Q78.73-34.47 81.07-33.15 83.42-31.84 84.88-30.3L84.88-30.3 82.69-27.76Q81.42-29.13 79.63-30.02 77.85-30.91 75.31-30.91L75.31-30.91Q71.85-30.91 69.28-29.21 66.72-27.51 65.31-24.4 63.91-21.29 63.91-16.99L63.91-16.99Q63.91-10.5 66.87-6.71 69.82-2.93 75.31-2.93L75.31-2.93Q77.17-2.93 78.85-3.45 80.54-3.98 81.59-4.98L81.59-4.98 81.59-14.06 74.29-14.06 74.29-17.41 85.3-17.41 85.3-3.3Q83.69-1.59 81-0.49 78.32 0.61 74.95 0.61Z" opacity="1" transform="matrix(1,0,0,1,0,0)" fill="#030303" class="wordmark-text-0" data-fill-palette-color="primary" id="text-0"></path></svg></g></svg></g></svg></g></svg></g></svg></g></svg></g></svg></g><path d="M165.016 64.413L165.016 14.054 384.107 14.054 384.107 233.146 165.016 233.146 165.016 182.787 174.609 182.787 174.609 223.553 374.514 223.553 374.514 23.647 174.609 23.647 174.609 64.413Z" fill="#030303" stroke="transparent" data-fill-palette-color="tertiary"></path></svg></g><defs></defs></svg><rect width="395.52" height="247.2" fill="none" stroke="none" visibility="hidden"></rect></g></svg></g></svg>